<svg xmlns="http://www.w3.org/2000/svg" viewBox="0 0 960 640" role="img" aria-label="Soup illustration">
  <defs>
    <linearGradient id="g" x1="0" x2="1" y1="0" y2="1">
      <stop offset="0" stop-color="#f7c65a" stop-opacity="0.7"/>
      <stop offset="1" stop-color="#7ce0c6" stop-opacity="0.7"/>
    </linearGradient>
  </defs>
  <rect width="960" height="640" fill="#0f1319"/>
  <rect x="64" y="64" width="832" height="512" rx="48" fill="url(#g)" opacity="0.18"/>
  <path d="M280 340c0 130 80 210 200 210s200-80 200-210" fill="#121826" stroke="#e9eef8" stroke-opacity="0.18" stroke-width="10"/>
  <path d="M310 350h340c-20 90-85 150-170 150s-150-60-170-150z" fill="#b45309" opacity="0.35"/>
  <path d="M400 240c-40 40 40 60 0 100" fill="none" stroke="#e9eef8" stroke-opacity="0.35" stroke-width="10" stroke-linecap="round"/>
  <path d="M480 230c-40 40 40 60 0 100" fill="none" stroke="#e9eef8" stroke-opacity="0.35" stroke-width="10" stroke-linecap="round"/>
  <path d="M560 240c-40 40 40 60 0 100" fill="none" stroke="#e9eef8" stroke-opacity="0.35" stroke-width="10" stroke-linecap="round"/>
</svg>

