<svg xmlns="http://www.w3.org/2000/svg" viewBox="0 0 600 600" role="img" aria-label="Cedar &amp; Steam coffee illustration">
  <defs>
    <radialGradient id="bg" cx="30%" cy="20%" r="80%">
      <stop offset="0" stop-color="#d28a3a" stop-opacity="0.45"/>
      <stop offset="1" stop-color="#1f6b63" stop-opacity="0"/>
    </radialGradient>
    <linearGradient id="cup" x1="0" y1="0" x2="1" y2="1">
      <stop offset="0" stop-color="#ffffff" stop-opacity="0.92"/>
      <stop offset="1" stop-color="#ffffff" stop-opacity="0.8"/>
    </linearGradient>
  </defs>
  <rect width="600" height="600" rx="64" fill="url(#bg)"/>
  <circle cx="420" cy="180" r="130" fill="#1f6b63" opacity="0.10"/>
  <circle cx="210" cy="420" r="170" fill="#c65b4a" opacity="0.10"/>

  <path d="M170 230c0-18 14-32 32-32h196c18 0 32 14 32 32v88c0 96-70 174-130 174s-130-78-130-174v-88z" fill="url(#cup)"/>
  <path d="M430 250h32c48 0 86 38 86 86s-38 86-86 86h-32" fill="none" stroke="#ffffff" stroke-width="22" stroke-linecap="round" opacity="0.9"/>
  <path d="M210 505h180" stroke="#ffffff" stroke-width="22" stroke-linecap="round" opacity="0.9"/>

  <path d="M260 170c-16-18-12-44 10-60" fill="none" stroke="#1f6b63" stroke-width="14" stroke-linecap="round" opacity="0.25"/>
  <path d="M330 170c-16-18-12-44 10-60" fill="none" stroke="#1f6b63" stroke-width="14" stroke-linecap="round" opacity="0.25"/>
  <path d="M400 170c-16-18-12-44 10-60" fill="none" stroke="#1f6b63" stroke-width="14" stroke-linecap="round" opacity="0.25"/>
</svg>

