<svg xmlns="http://www.w3.org/2000/svg" viewBox="0 0 800 800" role="img" aria-label="Coffee beans">
  <defs>
    <linearGradient id="g" x1="0" y1="0" x2="1" y2="1">
      <stop offset="0" stop-color="#c65b4a"/>
      <stop offset="1" stop-color="#141817"/>
    </linearGradient>
  </defs>
  <rect width="800" height="800" rx="56" fill="url(#g)"/>
  <g fill="#ffffff" opacity="0.9">
    <path d="M280 510c-70-70-70-190 0-260s190-70 260 0 70 190 0 260-190 70-260 0z" opacity="0.18"/>
    <path d="M260 540c-84-84-84-226 0-310s226-84 310 0 84 226 0 310-226 84-310 0z" opacity="0.10"/>
  </g>
  <g fill="#ffffff" opacity="0.9">
    <path d="M270 370c0-78 55-140 130-140s130 62 130 140-55 150-130 150-130-72-130-150z" opacity="0.9"/>
    <path d="M400 230c-26 45-26 80 0 140s26 95 0 150" fill="none" stroke="#1f6b63" stroke-width="18" stroke-linecap="round" opacity="0.2"/>
  </g>
</svg>

