<svg xmlns="http://www.w3.org/2000/svg" viewBox="0 0 800 800" role="img" aria-label="Latte art">
  <defs>
    <linearGradient id="g" x1="0" y1="0" x2="1" y2="1">
      <stop offset="0" stop-color="#1f6b63"/>
      <stop offset="1" stop-color="#d28a3a"/>
    </linearGradient>
  </defs>
  <rect width="800" height="800" rx="56" fill="url(#g)"/>
  <circle cx="400" cy="420" r="240" fill="#ffffff" opacity="0.92"/>
  <circle cx="400" cy="420" r="200" fill="#d28a3a" opacity="0.18"/>
  <path d="M400 300c60 40 110 90 110 140 0 65-52 110-110 110s-110-45-110-110c0-50 50-100 110-140z" fill="#1f6b63" opacity="0.12"/>
  <path d="M400 330c40 28 80 65 80 100 0 46-36 78-80 78s-80-32-80-78c0-35 40-72 80-100z" fill="#1f6b63" opacity="0.12"/>
  <path d="M260 690h280" stroke="#ffffff" stroke-width="16" stroke-linecap="round" opacity="0.9"/>
</svg>

