<svg xmlns="http://www.w3.org/2000/svg" viewBox="0 0 800 800" role="img" aria-label="Pour-over coffee">
  <defs>
    <linearGradient id="g" x1="0" y1="0" x2="1" y2="1">
      <stop offset="0" stop-color="#c65b4a"/>
      <stop offset="1" stop-color="#d28a3a"/>
    </linearGradient>
  </defs>
  <rect width="800" height="800" rx="56" fill="url(#g)"/>
  <path d="M250 280h300l-40 110H290l-40-110z" fill="#ffffff" opacity="0.9"/>
  <path d="M300 390h200l-35 240H335l-35-240z" fill="#ffffff" opacity="0.88"/>
  <path d="M360 430c40 30 80 70 80 110 0 55-42 90-80 90s-80-35-80-90c0-40 40-80 80-110z" fill="#1f6b63" opacity="0.14"/>
  <path d="M410 190c-14-16-10-38 9-52" fill="none" stroke="#ffffff" stroke-width="14" stroke-linecap="round" opacity="0.55"/>
  <path d="M470 210c-14-16-10-38 9-52" fill="none" stroke="#ffffff" stroke-width="14" stroke-linecap="round" opacity="0.55"/>
</svg>

