<svg xmlns="http://www.w3.org/2000/svg" viewBox="0 0 1200 800" role="img" aria-label="Launch checklist illustration">
  <defs>
    <linearGradient id="bg" x1="0" y1="0" x2="1" y2="1">
      <stop offset="0%" stop-color="#0d5c54" stop-opacity="0.18" />
      <stop offset="100%" stop-color="#f5c543" stop-opacity="0.18" />
    </linearGradient>
    <linearGradient id="panel" x1="0" y1="0" x2="0" y2="1">
      <stop offset="0%" stop-color="#ffffff" stop-opacity="0.96" />
      <stop offset="100%" stop-color="#ffffff" stop-opacity="0.9" />
    </linearGradient>
  </defs>

  <rect width="1200" height="800" fill="url(#bg)" />

  <rect x="80" y="90" width="1040" height="620" rx="34" fill="url(#panel)" />

  <rect x="140" y="150" width="920" height="74" rx="18" fill="#10213a" fill-opacity="0.08" />
  <rect x="170" y="176" width="220" height="22" rx="11" fill="#0d5c54" fill-opacity="0.7" />
  <rect x="410" y="176" width="140" height="22" rx="11" fill="#f5c543" fill-opacity="0.85" />

  <rect x="140" y="260" width="600" height="420" rx="26" fill="#10213a" fill-opacity="0.06" />
  <rect x="770" y="260" width="290" height="420" rx="26" fill="#0d5c54" fill-opacity="0.08" />

  <!-- Checklist items -->
  <g fill="none" stroke="#0d5c54" stroke-width="6" stroke-linecap="round" stroke-linejoin="round" opacity="0.95">
    <circle cx="190" cy="330" r="14" />
    <path d="M182 330l6 6 14-16" />
    <circle cx="190" cy="410" r="14" />
    <path d="M182 410l6 6 14-16" />
    <circle cx="190" cy="490" r="14" />
    <path d="M182 490l6 6 14-16" />
    <circle cx="190" cy="570" r="14" />
    <path d="M182 570l6 6 14-16" />
  </g>

  <g fill="#233753" fill-opacity="0.18">
    <rect x="230" y="318" width="420" height="20" rx="10" />
    <rect x="230" y="398" width="360" height="20" rx="10" />
    <rect x="230" y="478" width="390" height="20" rx="10" />
    <rect x="230" y="558" width="340" height="20" rx="10" />
  </g>

  <!-- Right summary cards -->
  <g>
    <rect x="805" y="310" width="220" height="94" rx="18" fill="#f5c543" fill-opacity="0.7" />
    <rect x="805" y="430" width="220" height="94" rx="18" fill="#ff7a59" fill-opacity="0.55" />
    <rect x="805" y="550" width="220" height="94" rx="18" fill="#0d5c54" fill-opacity="0.55" />
    <g fill="#10213a" fill-opacity="0.75">
      <rect x="830" y="342" width="150" height="14" rx="7" />
      <rect x="830" y="365" width="120" height="14" rx="7" />
      <rect x="830" y="462" width="160" height="14" rx="7" />
      <rect x="830" y="485" width="110" height="14" rx="7" />
      <rect x="830" y="582" width="140" height="14" rx="7" />
      <rect x="830" y="605" width="130" height="14" rx="7" />
    </g>
  </g>

  <!-- Caption -->
  <text x="170" y="715" font-family="Arial, Helvetica, sans-serif" font-size="22" fill="#5b6c80">Launch checklist + clear handoff</text>
</svg>
