<svg xmlns="http://www.w3.org/2000/svg" viewBox="0 0 1200 800" role="img" aria-label="Service workflow illustration">
  <defs>
    <linearGradient id="bg" x1="0" y1="0" x2="1" y2="1">
      <stop offset="0%" stop-color="#fff0c2" />
      <stop offset="100%" stop-color="#ffd2c2" />
    </linearGradient>
  </defs>
  <rect width="1200" height="800" fill="url(#bg)" />
  <rect x="80" y="90" width="1040" height="620" rx="36" fill="#ffffff" opacity="0.92" />
  <rect x="140" y="150" width="320" height="520" rx="24" fill="#0d5c54" opacity="0.08" />
  <rect x="520" y="150" width="560" height="520" rx="24" fill="#10213a" opacity="0.06" />

  <rect x="190" y="200" width="220" height="40" rx="20" fill="#0d5c54" />
  <rect x="190" y="270" width="220" height="14" rx="7" fill="#233753" opacity="0.2" />
  <rect x="190" y="300" width="200" height="14" rx="7" fill="#233753" opacity="0.2" />
  <rect x="190" y="330" width="180" height="14" rx="7" fill="#233753" opacity="0.2" />

  <rect x="560" y="200" width="460" height="60" rx="16" fill="#f5c543" />
  <rect x="560" y="280" width="420" height="20" rx="10" fill="#233753" opacity="0.18" />
  <rect x="560" y="320" width="380" height="20" rx="10" fill="#233753" opacity="0.18" />

  <g opacity="0.9">
    <rect x="560" y="380" width="150" height="150" rx="20" fill="#ff7a59" />
    <rect x="740" y="380" width="150" height="150" rx="20" fill="#0d5c54" />
    <rect x="920" y="380" width="150" height="150" rx="20" fill="#10213a" />
  </g>

  <circle cx="230" cy="460" r="28" fill="#f5c543" />
  <circle cx="310" cy="460" r="28" fill="#ff7a59" />
  <circle cx="390" cy="460" r="28" fill="#0d5c54" />

  <text x="190" y="560" font-family="Arial, Helvetica, sans-serif" font-size="26" font-weight="700" fill="#10213a">Design • Build • Launch</text>
  <text x="190" y="600" font-family="Arial, Helvetica, sans-serif" font-size="18" fill="#5b6c80">Clear steps and reliable delivery.</text>
</svg>
